#!OML:ASF F:\VICON\USERDATA\INSTALL\Justin_Nancy\Justin_Nancy.ASF
:FULLY-SPECIFIED
:DEGREES
79
root 0.268504 17.399 -29.9495 3.66405 0.181696 -1.43322
lowerback 6.19735 0.663361 0.0509049
upperback 0.190516 0.97787 2.64124
thorax -3.32556 0.505604 2.61249
lowerneck -8.76545 -3.56478 -9.91547
upperneck 19.3584 -4.48257 6.1212
head 7.76743 -2.3034 3.25468
rclavicle -1.49089e-015 -2.38542e-014
rhumerus -34.0829 -8.93241 -79.7744
rradius 28.5028
rwrist 9.67083
rhand -13.7755 8.01972
rfingers 7.12502
rthumb 12.3456 -21.5958
lclavicle -1.49089e-015 -2.38542e-014
lhumerus -34.7873 18.0789 79.2226
lradius 25.1883
lwrist -11.7533
lhand -13.9515 23.98
lfingers 7.12502
lthumb 12.1759 53.6056
rfemur -1.94198 4.35624 29.2073
rtibia 21.5165
rfoot -17.8194 -11.3621
rtoes 12.3612
lfemur -35.8363 -4.65874 -16.9303
ltibia 41.929
lfoot -11.8382 3.92227
ltoes -4.91195
80
root 0.267448 17.391 -29.8866 3.51939 0.114862 -1.51881
lowerback 6.51539 0.774144 0.238361
upperback 0.242904 1.14138 2.59473
thorax -3.45264 0.583716 2.44069
lowerneck -8.97498 -3.57694 -9.77615
upperneck 19.3962 -4.5068 6.13931
head 7.81629 -2.29984 3.23303
rclavicle 1.54058e-014 1.51076e-014
rhumerus -34.0693 -9.07543 -79.8111
rradius 28.3358
rwrist 9.35356
rhand -14.3108 9.25291
rfingers 7.12502
rthumb 11.8294 -20.393
lclavicle 1.54058e-014 1.51076e-014
lhumerus -34.8348 17.8794 79.1443
lradius 25.1049
lwrist -11.7856
lhand -14.049 22.7951
lfingers 7.12502
lthumb 12.0818 52.4263
rfemur -1.25623 4.40731 29.3353
rtibia 20.9498
rfoot -17.7162 -11.3868
rtoes 12.2691
lfemur -35.9648 -4.68412 -16.8021
ltibia 40.8807
lfoot -11.8187 3.88914
ltoes -5.09313
81
root 0.269196 17.3758 -29.8251 3.49791 0.0357418 -1.75462
lowerback 6.83498 0.856935 0.616596
upperback 0.330693 1.28374 2.58228
thorax -3.53834 0.647874 2.19776
lowerneck -9.77968 -3.55818 -9.72823
upperneck 19.7889 -4.4505 6.26333
head 8.08857 -2.24793 3.26781
rclavicle -4.27387e-015 2.14687e-014
rhumerus -33.8279 -8.94235 -80.072
rradius 28.2133
rwrist 8.40127
rhand -15.2395 10.4037
rfingers 7.12502
rthumb 10.9337 -19.2916
lclavicle -4.27387e-015 2.14687e-014
lhumerus -34.7092 18.0743 78.9697
lradius 24.9375
lwrist -12.2311
lhand -14.0436 21.5397
lfingers 7.12502
lthumb 12.0871 51.1706
rfemur -0.697989 4.57591 29.6436
rtibia 20.4412
rfoot -17.5766 -11.5761
rtoes 11.4475
lfemur -36.2449 -4.77871 -16.465
ltibia 39.8412
lfoot -11.6851 3.90224
ltoes -5.32544
82
root 0.270874 17.3623 -29.7631 3.54459 -0.179976 -1.90425
lowerback 6.95641 0.970205 0.825871
upperback 0.415172 1.45103 2.5783
thorax -3.51943 0.727149 2.05805
lowerneck -10.0219 -3.75846 -9.76485
upperneck 19.5456 -4.68243 6.23198
head 8.07298 -2.35711 3.2328
rclavicle 8.24956e-015 3.18055e-015
rhumerus -33.6305 -9.12827 -80.0422
rradius 28.647
rwrist 9.45419
rhand -14.0825 8.50539
rfingers 7.12502
rthumb 12.0496 -21.1277
lclavicle 8.24956e-015 3.18055e-015
lhumerus -34.5811 18.2817 78.8409
lradius 24.72
lwrist -12.4241
lhand -14.1614 21.0568
lfingers 7.12502
lthumb 11.9735 50.6944
rfemur -0.272712 4.52478 29.7681
rtibia 20.037
rfoot -17.5617 -11.3944
rtoes 10.6139
lfemur -36.543 -4.63922 -16.2531
ltibia 38.7444
lfoot -11.5522 3.75833
ltoes -5.45644
83
root 0.271742 17.3629 -29.6986 3.61568 -0.388392 -1.95265
lowerback 6.92633 1.07087 0.948647
upperback 0.455213 1.59173 2.55329
thorax -3.46136 0.794765 1.9498
lowerneck -10.0517 -3.64268 -9.71825
upperneck 19.5053 -4.53274 6.26715
head 8.05086 -2.27848 3.2523
rclavicle -2.5842e-015 -5.56597e-015
rhumerus -33.5472 -8.58985 -80.3783
rradius 28.5184
rwrist 7.39674
rhand -15.1925 9.68865
rfingers 7.12502
rthumb 10.9791 -20.0043
lclavicle -2.5842e-015 -5.56597e-015
lhumerus -34.6458 18.2304 78.8053
lradius 24.6545
lwrist -12.3379
lhand -14.5042 21.2157
lfingers 7.12502
lthumb 11.6429 50.8722
rfemur 0.0516849 4.32289 29.7349
rtibia 19.6814
rfoot -17.5958 -10.9789
rtoes 11.2709
lfemur -36.7881 -4.44828 -16.1685
ltibia 37.5981
lfoot -11.4072 3.65796
ltoes -6.64622
84
root 0.270358 17.3623 -29.6294 3.63552 -0.41039 -1.94868
lowerback 6.84537 1.12225 1.0245
upperback 0.531143 1.66004 2.50922
thorax -3.33579 0.827127 1.85678
lowerneck -10.0295 -3.61917 -9.64994
upperneck 19.499 -4.52122 6.30157
head 8.04234 -2.26499 3.25404
rclavicle -1.23246e-014 8.74653e-015
rhumerus -33.3771 -8.54724 -80.4648
rradius 28.6696
rwrist 7.56735
rhand -14.8132 9.50904
rfingers 7.12502
rthumb 11.3449 -20.1641
lclavicle -1.23246e-014 8.74653e-015
lhumerus -34.7516 17.9204 78.8727
lradius 24.7524
lwrist -12.0798
lhand -14.6947 21.8949
lfingers 7.12502
lthumb 11.4592 51.5618
rfemur 0.406329 4.25334 29.7266
rtibia 19.3974
rfoot -17.7075 -10.8287
rtoes 12.2572
lfemur -36.9567 -4.50788 -16.0873
ltibia 36.3926
lfoot -11.3498 3.65079
ltoes -7.16053
85
root 0.267452 17.3519 -29.5609 3.69891 -0.355226 -2.07816
lowerback 6.79464 1.16591 1.18053
upperback 0.613718 1.72623 2.512
thorax -3.21916 0.857808 1.76728
lowerneck -10.0116 -3.82158 -9.55601
upperneck 19.2484 -4.78272 6.16522
head 7.97375 -2.3929 3.16186
rclavicle 7.7526e-015 3.97569e-015
rhumerus -33.1105 -8.71436 -80.5198
rradius 28.624
rwrist 7.89762
rhand -14.8415 9.66091
rfingers 7.12502
rthumb 11.3176 -20.0137
lclavicle 7.7526e-015 3.97569e-015
lhumerus -34.7192 17.9524 78.8302
lradius 24.7976
lwrist -12.1769
lhand -14.5379 22.9792
lfingers 7.12502
lthumb 11.6104 52.6376
rfemur 0.731414 4.32903 29.9303
rtibia 19.1151
rfoot -17.7807 -11.0121
rtoes 11.6777
lfemur -37.1833 -4.51901 -15.8775
ltibia 35.1898
lfoot -11.2796 3.54955
ltoes -5.8558
86
root 0.268755 17.3422 -29.4919 3.66529 -0.420352 -2.14595
lowerback 6.97299 1.33376 1.25674
upperback 0.687072 1.95771 2.49911
thorax -3.24549 0.971477 1.68592
lowerneck -10.2181 -3.97018 -9.38209
upperneck 19.1427 -4.9799 6.0847
head 7.98648 -2.47664 3.08086
rclavicle -4.37326e-015 -1.90833e-014
rhumerus -33.0118 -9.17002 -80.4063
rradius 28.7891
rwrist 8.46423
rhand -14.6661 9.65819
rfingers 7.12502
rthumb 11.4867 -20.0071
lclavicle -4.37326e-015 -1.90833e-014
lhumerus -34.5461 17.8905 78.8733
lradius 24.6783
lwrist -12.4302
lhand -14.3085 22.3615
lfingers 7.12502
lthumb 11.8316 52.0072
rfemur 1.2419 4.35403 30.0233
rtibia 18.6942
rfoot -17.8203 -11.0017
rtoes 11.2503
lfemur -37.2762 -4.45943 -15.7697
ltibia 34.0761
lfoot -11.2544 3.48214
ltoes -5.44529
87
root 0.270894 17.334 -29.4173 3.53919 -0.543182 -2.15906
lowerback 7.0816 1.5065 1.29941
upperback 0.794819 2.18952 2.46826
thorax -3.19691 1.08583 1.60614
lowerneck -10.2743 -3.91082 -9.16896
upperneck 19.1862 -4.93623 6.10186
head 8.0012 -2.43796 3.05573
rclavicle -2.60408e-014 -9.54166e-015
rhumerus -32.9308 -9.34861 -80.3917
rradius 29.2034
rwrist 8.79037
rhand -13.9944 8.39598
rfingers 7.12502
rthumb 12.1345 -21.2321
lclavicle -2.60408e-014 -9.54166e-015
lhumerus -34.5469 17.6203 78.9405
lradius 24.6656
lwrist -12.4595
lhand -14.3995 21.279
lfingers 7.12502
lthumb 11.7439 50.9298
rfemur 1.95063 4.30123 30.0366
rtibia 18.1692
rfoot -17.8162 -10.892
rtoes 11.2726
lfemur -37.2765 -4.43728 -15.7164
ltibia 33.0711
lfoot -11.2667 3.6187
ltoes -8.70159
88
root 0.270239 17.3264 -29.3484 3.60373 -0.580488 -2.35921
lowerback 6.99972 1.62626 1.52403
upperback 0.835674 2.36283 2.48281
thorax -3.10389 1.16952 1.48132
lowerneck -9.99456 -4.08425 -9.16609
upperneck 18.8264 -5.1855 6.0928
head 7.85221 -2.55944 3.02637
rclavicle 3.57812e-015 1.66979e-014
rhumerus -32.9197 -9.56805 -80.3829
rradius 29.2622
rwrist 8.88503
rhand -14.1458 8.55205
rfingers 7.12502
rthumb 11.9885 -21.0846
lclavicle 3.57812e-015 1.66979e-014
lhumerus -34.6874 17.3033 78.9398
lradius 24.7033
lwrist -12.3465
lhand -13.8508 22.2157
lfingers 7.12502
lthumb 12.273 51.8355
rfemur 2.46261 4.44813 30.3012
rtibia 17.6122
rfoot -17.7367 -10.9479
rtoes 11.3926
lfemur -37.5307 -4.40657 -15.43
ltibia 32.1145
lfoot -11.056 3.7149
ltoes -5.78893
89
root 0.269248 17.3197 -29.2823 3.75804 -0.545875 -2.41956
lowerback 6.98996 1.65442 1.59961
upperback 0.86429 2.40457 2.47782
thorax -3.0662 1.18945 1.43057
lowerneck -10.0928 -4.162 -9.12892
upperneck 18.6362 -5.2728 6.04088
head 7.81218 -2.60016 2.99053
rclavicle 9.74045e-015 1.82882e-014
rhumerus -32.8265 -9.28584 -80.6161
rradius 29.2937
rwrist 7.65872
rhand -14.9076 9.57427
rfingers 7.12502
rthumb 11.2539 -20.1038
lclavicle 9.74045e-015 1.82882e-014
lhumerus -34.6577 17.445 78.8336
lradius 24.6183
lwrist -12.4114
lhand -13.3368 22.8214
lfingers 7.12502
lthumb 12.7685 52.411
rfemur 2.84763 4.47336 30.3925
rtibia 17.0287
rfoot -17.6478 -10.9931
rtoes 11.3785
lfemur -37.8582 -4.24129 -15.3832
ltibia 31.1992
lfoot -11.117 3.64098
ltoes -3.4786
90
root 0.270655 17.3124 -29.2083 3.87924 -0.679924 -2.52443
lowerback 6.92551 1.71265 1.75424
upperback 0.94359 2.48894 2.48351
thorax -2.94312 1.23021 1.34514
lowerneck -10.2807 -4.23769 -9.25645
upperneck 18.6964 -5.36103 6.14826
head 7.88 -2.63814 3.03568
rclavicle -1.96797e-014 -2.46493e-014
rhumerus -32.5138 -9.27706 -80.6203
rradius 29.54
rwrist 8.71372
rhand -14.2025 8.46906
rfingers 7.12502
rthumb 11.9338 -21.1708
lclavicle -1.96797e-014 -2.46493e-014
lhumerus -34.5542 17.7929 78.7274
lradius 24.5668
lwrist -12.5007
lhand -13.7814 21.8682
lfingers 7.12502
lthumb 12.3398 51.4841
rfemur 3.27705 4.45577 30.4687
rtibia 16.4616
rfoot -17.5725 -10.8619
rtoes 11.0061
lfemur -38.1094 -4.07595 -15.259
ltibia 30.3517
lfoot -11.3382 3.78201
ltoes -2.16394
91
root 0.273194 17.3066 -29.1307 3.94024 -1.12499 -2.68111
lowerback 6.80735 1.90142 1.91586
upperback 1.05456 2.74418 2.49588
thorax -2.75859 1.35662 1.24995
lowerneck -10.1195 -4.45637 -9.44302
upperneck 18.8677 -5.66904 6.23966
head 7.94254 -2.79257 3.06755
rclavicle 2.27608e-014 2.3059e-014
rhumerus -32.2486 -9.26158 -80.6662
rradius 29.5902
rwrist 8.8944
rhand -14.0512 8.71009
rfingers 7.12502
rthumb 12.0797 -20.9212
lclavicle 2.27608e-014 2.3059e-014
lhumerus -34.4686 17.6185 78.8489
lradius 24.715
lwrist -12.1025
lhand -13.2886 21.6589
lfingers 7.12502
lthumb 12.815 51.2456
rfemur 3.7373 4.61566 30.5623
rtibia 16.0169
rfoot -17.5638 -10.6006
rtoes 10.5466
lfemur -38.203 -3.77893 -15.0458
ltibia 29.4803
lfoot -10.8699 4.18575
ltoes -3.42355
92
root 0.276396 17.2969 -29.0527 4.0073 -1.36801 -2.84319
lowerback 6.80356 2.02815 2.11899
upperback 1.09774 2.92516 2.48273
thorax -2.70271 1.44495 1.10771
lowerneck -10.2861 -4.28826 -9.08364
upperneck 18.3849 -5.44916 6.14896
head 7.77999 -2.66613 2.99557
rclavicle -1.98785e-015 1.43125e-014
rhumerus -32.0492 -9.19568 -80.8214
rradius 29.6096
rwrist 8.71915
rhand -14.1366 8.50334
rfingers 7.12502
rthumb 11.9973 -21.1328
lclavicle -1.98785e-015 1.43125e-014
lhumerus -34.4881 17.845 78.5749
lradius 24.3541
lwrist -12.1359
lhand -11.5985 19.6635
lfingers 7.12502
lthumb 14.4439 49.1408
rfemur 4.21679 4.8127 30.7139
rtibia 15.5587
rfoot -17.6194 -10.4259
rtoes 10.8574
lfemur -38.2873 -3.56758 -14.8439
ltibia 28.6136
lfoot -10.5006 4.4385
ltoes -6.05975
93
root 0.279087 17.2833 -28.9778 4.15764 -1.36279 -2.8097
lowerback 6.87336 2.07341 2.11192
upperback 1.05129 2.98818 2.45236
thorax -2.78872 1.47543 1.07102
lowerneck -10.5609 -4.21779 -8.96073
upperneck 18.3205 -5.33391 6.0808
head 7.79308 -2.60384 2.96016
rclavicle 1.75924e-014 1.51076e-014
rhumerus -31.7637 -9.11944 -80.9392
rradius 29.6204
rwrist 8.52148
rhand -13.6635 7.29503
rfingers 7.12502
rthumb 12.4535 -22.3139
lclavicle 1.75924e-014 1.51076e-014
lhumerus -34.6751 18.0107 78.4127
lradius 24.2968
lwrist -12.2667
lhand -14.2823 20.8795
lfingers 7.12502
lthumb 11.8569 50.5238
rfemur 4.64876 4.96806 30.7206
rtibia 15.0458
rfoot -17.5459 -10.5667
rtoes 10.4382
lfemur -38.5325 -3.39999 -14.9107
ltibia 27.7704
lfoot -10.9015 4.40029
ltoes -5.06901
